# xmcd
#
# Track frame offsets:
# 150
# 13724
# 28210
# 41529
# 55951
# 70073
# 86811
#
# Disc length: 1379 seconds
#
#
# Revision: 0
# Processed by: cddbd v1.5.2PL0 Copyright (c) Steve Scherf et al.
# Submitted via: FreeRIP 2.931 
#
DISCID=59056107
DTITLE=The Zetland Players - Making Freinds With 
DYEAR=1900
DGENRE=Acoustic
TTITLE0=Jacks Little Zoo
TTITLE1=Georgia
TTITLE2=Staten Island Seranade
TTITLE3=A Tale
TTITLE4=Whats Mine Is Yours
TTITLE5=1 in 7
TTITLE6=Night At the Lyric
EXTD=
EXTT0=
EXTT1=
EXTT2=
EXTT3=
EXTT4=
EXTT5=
EXTT6=
PLAYORDER=
